<svg xmlns="http://www.w3.org/2000/svg" width="16" height="12" viewBox="0 0 16 12">
  <g id="book_2_" data-name="book(2)" transform="translate(0.001 -36.758)">
    <g id="Group_446" data-name="Group 446" transform="translate(-0.001 36.758)">
      <path id="Path_836" data-name="Path 836" d="M14.858,40.383c-.065-.467-.074-1.272.378-1.542a.166.166,0,0,0,.021-.018c.369-.113.625-.273.424-.487l-5.448-1.577L1.411,37.936s-1.01.139-.92,1.647a1.91,1.91,0,0,0,.551,1.422l-.724.21c-.2.214.055.374.424.487a.144.144,0,0,0,.021.018c.451.271.443,1.075.378,1.543C-.481,43.706.1,43.85.1,43.85l.356.083a1.62,1.62,0,0,0-.452,1.411c.09,1.508.92,1.612.92,1.612l5.773,1.8,8.714-2.028s.582-.144-1.04-.587c-.065-.467-.074-1.271.378-1.543a.131.131,0,0,0,.021-.018c.369-.113.625-.273.424-.487l-.379-.11c.253-.146.632-.529.691-1.522a1.715,1.715,0,0,0-.359-1.319l.749-.174S16.48,40.826,14.858,40.383Zm-7.289-.019,1.465-.289,4.952-.978.738-.146a2.367,2.367,0,0,0-.187,1.347c.009.082.018.158.028.215l-.808.193L7.508,42.2ZM1.275,41.831l.738.146,4.756.939L7.184,43h0l1.246.246.061,1.836L2.067,43.544l-.633-.151c.009-.057.019-.133.028-.215A2.367,2.367,0,0,0,1.275,41.831ZM.988,39.511a1.156,1.156,0,0,1,.216-.839.4.4,0,0,1,.286-.114.5.5,0,0,1,.072.005l3.8,1.191,1.9.594L7.2,42.2l-5.32-1.433L1.6,40.688a.176.176,0,0,0-.035-.005C1.54,40.681,1.014,40.635.988,39.511Zm5.724,8.447-5.6-1.509a.173.173,0,0,0-.035-.005c-.022,0-.549-.048-.574-1.172a1.157,1.157,0,0,1,.216-.839A.4.4,0,0,1,1,44.318a.526.526,0,0,1,.073.005h0l5.7,1.785Zm7.339-1.9c.009.083.019.158.028.215L7.022,47.96l.062-1.836,1.509-.3.223.052.835-.261,3.85-.76.738-.146A2.364,2.364,0,0,0,14.051,46.058Zm.389-2.495a.141.141,0,0,0-.038.006l-.532.143L8.8,45.077,8.74,43.229l1.663-.521,4.027-1.262a.432.432,0,0,1,.367.106,1.158,1.158,0,0,1,.216.839C14.986,43.515,14.459,43.561,14.44,43.563Z" transform="translate(0.001 -36.758)" fill="#999"/>
    </g>
  </g>
</svg>
