<svg xmlns="http://www.w3.org/2000/svg" width="16" height="16" viewBox="0 0 16 16">
  <path id="XMLID_1216_" d="M25.111,16.545h-.889V14.636c0-1.055-1.289-1.945-2.533-2.818a12.8,12.8,0,0,1-1.244-.945V9.109c.222-.2.822-.655,1.244-.945,1.244-.855,2.533-1.745,2.533-2.8V3.455h.889A.823.823,0,0,0,26,2.727.823.823,0,0,0,25.111,2H10.889A.823.823,0,0,0,10,2.727a.823.823,0,0,0,.889.727h.889V5.364c0,1.055,1.289,1.945,2.533,2.818.422.291,1.022.745,1.244.945v1.764c-.222.2-.822.655-1.244.945-1.244.855-2.533,1.745-2.533,2.8v1.909h-.889a.823.823,0,0,0-.889.727.823.823,0,0,0,.889.727H25.111A.823.823,0,0,0,26,17.273.823.823,0,0,0,25.111,16.545ZM13.556,14.636c0-.382,1.244-1.255,1.911-1.709,1.067-.745,1.867-1.291,1.867-1.964V9.036c0-.691-.8-1.236-1.867-1.982C14.8,6.6,13.556,5.745,13.556,5.345V3.455h8.889V5.364c0,.382-1.244,1.255-1.911,1.709-1.067.745-1.867,1.291-1.867,1.964v1.909c0,.691.8,1.236,1.867,1.982.667.455,1.911,1.309,1.911,1.709v1.909H13.556ZM20,5.091V4.727a.727.727,0,0,1,.778-.636.714.714,0,0,1,.778.636v.364a.793.793,0,0,1-1.556,0Z" transform="translate(-10 -2)" fill="#999"/>
</svg>
