<svg id="Layer_1" data-name="Layer 1" xmlns="http://www.w3.org/2000/svg" viewBox="0 0 81.17 81.45"><defs><style>.cls-1{fill:#eee;}.cls-2{fill:#0673ba;}.cls-3{fill:#f06022;fill-rule:evenodd;}</style></defs><circle class="cls-1" cx="40.77" cy="40.88" r="40.4"/><path class="cls-2" d="M50.29,22.84a0,0,0,0,0,0,0c-.33.37-5.53,4.79-7.93,6.73L40.9,30.9l0,0h0c-.39.19-8.74-.75-11.53-1a0,0,0,0,0,0,0,12.27,12.27,0,0,0,1.4,6s.91-.41,1.32-.59a15.52,15.52,0,0,1,2.92-.89c3.66-.74,6.48.9,8.67,2.09,0,0,0,0,0,0A11.24,11.24,0,0,1,51,28.36a5.91,5.91,0,0,1,1.94-.52s0,0,0,0C52.82,26.32,51.37,23.3,50.29,22.84Z"/><path class="cls-2" d="M36.22,15.24h0L18.89,27.86s0,0,0,.05c.52,0,4,.35,5.63.55a0,0,0,0,1,0,0v5h0c-.71.6-1,1.3-.14,2.15h0c0,.14-.61.41-.7,5.74-.14,2,0,.08-.14,2,0,0,0,0,0,0,1.1-.39,1.32-.59,2.45,0,0,0,0,0,0,0-.05-.73-.08-1.29-.13-2s0-4.27-.75-5.73c0,0,0,0,0,0,1.06-.64.63-1.66-.06-2.14V28.54a0,0,0,0,1,0,0c3,.22,13.77,1.09,15.06,1.21,0,0,0,0,0,0,2.83-2.39,16.59-13.48,17.64-14.67,0,0,0,0,0,0Z"/><path class="cls-3" d="M31.2,66.76V37.14l2.63-1.08a8.59,8.59,0,0,1,6.82.84c.4.3.19,3.71.18,5.39,3.34.06,5.32-.81,5.92-3.51a5.84,5.84,0,0,0,0-2.53c-.22-.78-.87-1.3-.78-1.91a8.66,8.66,0,0,1,7.08-5.11,7,7,0,0,1,1.78,1.86,12.24,12.24,0,0,1,.42,10.22,10.72,10.72,0,0,1-2.16,2.86c-.35.35-1,.71-1.17,1.17a7.14,7.14,0,0,1,2.63,1.87c4.21,4.2,3.11,11.84-.24,16A9.11,9.11,0,0,1,49.9,66.1c-2.41.73-5.53.66-8.6.66Zm9.63-17.49V59.63c3.77.06,5.93-1,6.63-4a7.48,7.48,0,0,0,0-2.91A5.08,5.08,0,0,0,46.7,51C45.63,49.54,43.36,49.25,40.83,49.27Z"/></svg>