<svg width="40" height="40" xmlns="http://www.w3.org/2000/svg">
 <g>
  <title>Layer 1</title>
  <g stroke="null" id="svg_2">
   <path stroke="null" id="svg_3" d="m39.74642,20.08102c0,-10.9808 -8.90167,-19.88248 -19.88245,-19.88248c-10.9808,0 -19.88248,8.90167 -19.88248,19.88248c0,9.9239 7.27072,18.14936 16.77583,19.64091l0,-13.89365l-5.04827,0l0,-5.74726l5.04827,0l0,-4.38035c0,-4.98307 2.96831,-7.73553 7.5099,-7.73553c2.17533,0 4.45066,0.38832 4.45066,0.38832l0,4.89295l-2.50714,0c-2.46989,0 -3.24012,1.53263 -3.24012,3.10499l0,3.72962l5.51427,0l-0.88152,5.74726l-4.63278,0l0,13.89365c9.50511,-1.49157 16.77583,-9.71702 16.77583,-19.64091" fill="#1877f2"/>
   <path stroke="null" id="svg_4" d="m27.60337,25.82828l0.88152,-5.74726l-5.5143,0l0,-3.72965c0,-1.57233 0.77026,-3.10495 3.24016,-3.10495l2.50714,0l0,-4.89295s-2.27534,-0.38832 -4.45066,-0.38832c-4.54159,0 -7.5099,2.75246 -7.5099,7.73553l0,4.38035l-5.04827,0l0,5.74726l5.04827,0l0,13.89365a20.03212,20.03212 0 0 0 3.10665,0.24153c1.05688,0 2.09436,-0.08272 3.10662,-0.24153l0,-13.89365l4.63278,0" fill="#fff"/>
  </g>
  <path fill="#fff" stroke="#000" opacity="NaN" d="m-346.44514,-282.00057" id="svg_1"/>
 </g>

</svg>