<svg width="40" height="40" xmlns="http://www.w3.org/2000/svg">

 <g>
  <title>Layer 1</title>
  <g stroke="null">

   <path stroke="null" fill="#fff" transform="translate(66.079 4.6334)" d="m-26.1635,15.14879c0,0.38592 -0.00919,0.77184 -0.03675,1.14857a19.68448,19.68448 0 0 1 -5.14557,12.20236a0.03207,0.03207 0 0 1 -0.00919,0.01838c-0.00919,0.00919 -0.01838,0.01838 -0.02757,0.01838l0,0.00919a19.74614,19.74614 0 0 1 -14.59137,6.41359a19.58874,19.58874 0 0 1 -8.95881,-2.15011c-0.00919,-0.00919 -0.00919,-0.01838 -0.01838,-0.00919c0,-0.00919 -0.00919,-0.00919 -0.01838,-0.00919a19.79566,19.79566 0 0 1 -10.81489,-17.64196a20.02243,20.02243 0 0 1 0.50537,-4.484a1.01129,1.01129 0 0 1 0.05513,-0.2389c0.03675,-0.1562 0.0827,-0.31241 0.11945,-0.46861a0.05513,0.05513 0 0 1 0.00919,-0.03675c0,-0.01838 0.00919,-0.02757 0.00919,-0.04594c0.06432,-0.21134 0.12864,-0.42267 0.19296,-0.62482c0.04594,-0.14702 0.09189,-0.30322 0.14702,-0.45024c0.04594,-0.1562 0.10107,-0.30322 0.1562,-0.45024a0.03372,0.03372 0 0 1 0.00919,-0.02757c0.11026,-0.30322 0.22971,-0.59725 0.35835,-0.89129c0.05513,-0.13783 0.11026,-0.26647 0.17458,-0.4043s0.11945,-0.27566 0.19296,-0.4043a0.34485,0.34485 0 0 1 0.05513,-0.11945a8.39399,8.39399 0 0 1 0.39511,-0.75346a0.08371,0.08371 0 0 1 0.03675,-0.07351a4.31576,4.31576 0 0 1 0.27566,-0.49618c0.03675,-0.06432 0.06432,-0.11945 0.10107,-0.17458a2.1016,2.1016 0 0 1 0.16539,-0.26647a5.96243,5.96243 0 0 1 0.33079,-0.50537a0.75888,0.75888 0 0 1 0.07351,-0.11026a1.28566,1.28566 0 0 1 0.09189,-0.14702a3.60107,3.60107 0 0 1 0.22971,-0.33079a0.70219,0.70219 0 0 1 0.07351,-0.10107c0.12864,-0.18377 0.26647,-0.36754 0.41348,-0.54212c0.1562,-0.21134 0.3216,-0.41348 0.49618,-0.61563c0.13783,-0.17458 0.28484,-0.33998 0.44105,-0.50537c0.00919,-0.00919 0.01838,-0.02757 0.03675,-0.03675a3.02698,3.02698 0 0 1 0.22971,-0.25728c0.07351,-0.0827 0.16539,-0.17458 0.24809,-0.25728l0.01838,-0.01838c0.19296,-0.20215 0.38592,-0.39511 0.58807,-0.57888c0.04594,-0.04594 0.09189,-0.09189 0.14702,-0.13783c0.20215,-0.19296 0.41348,-0.37673 0.63401,-0.5605c0.02757,-0.02757 0.05513,-0.04594 0.0827,-0.07351c0.01838,-0.01838 0.04594,-0.03675 0.06432,-0.05513a19.67345,19.67345 0 0 1 11.63267,-4.54832l0.02757,0q0.49618,-0.02757 0.99236,-0.02757c0.31241,0 0.61563,0.00919 0.91885,0.02757l0.10107,0c0.27566,0.00919 0.5605,0.03675 0.83616,0.06432c0.30322,0.02757 0.61563,0.06432 0.91885,0.11026a14.96204,14.96204 0 0 1 1.81014,0.33998c0.2389,0.05513 0.4778,0.11945 0.7167,0.18377a17.95796,17.95796 0 0 1 1.94797,0.65239c0.35835,0.13783 0.70752,0.28484 1.04749,0.45024l0.00919,0c0.3216,0.14702 0.6432,0.30322 0.95561,0.4778c0.29403,0.1562 0.58807,0.31241 0.87291,0.48699a0.18974,0.18974 0 0 0 0.05513,0.03675a2.66008,2.66008 0 0 1 0.26647,0.17458a0.60369,0.60369 0 0 1 0.1562,0.11026c0.2389,0.14702 0.4778,0.30322 0.70752,0.46861a0.19103,0.19103 0 0 1 0.05513,0.03675a0.75649,0.75649 0 0 1 0.11026,0.07351a0.38086,0.38086 0 0 0 0.10107,0.06432a1.73066,1.73066 0 0 1 0.21134,0.14702c0.11945,0.09189 0.25728,0.19296 0.37673,0.28484a0.95735,0.95735 0 0 1 0.10107,0.0827c0.17458,0.13783 0.33998,0.26647 0.49618,0.4043c0.22971,0.19296 0.45943,0.39511 0.67995,0.60644c0.11945,0.11026 0.2389,0.22052 0.35835,0.33998a4.58562,4.58562 0 0 1 0.42267,0.42267a19.15145,19.15145 0 0 1 2.02148,2.44415c0.06432,0.10107 0.13783,0.20215 0.20215,0.30322a0.33189,0.33189 0 0 1 0.06432,0.09189q0.19296,0.28944 0.38592,0.60644a1.85241,1.85241 0 0 1 0.16539,0.29403a0.19443,0.19443 0 0 1 0.06432,0.11945a5.02612,5.02612 0 0 1 0.30322,0.51456c0.16245,0.2989 0.30423,0.6081 0.44831,0.91619l0.02021,0.03942c0.05513,0.11026 0.11026,0.22971 0.16539,0.33998a0.51208,0.51208 0 0 1 0.06432,0.14702c0.05513,0.10107 0.09189,0.21134 0.13783,0.31241s0.0827,0.20215 0.12864,0.31241c0.09189,0.2389 0.18377,0.46861 0.26647,0.70752c0.01838,0.05513 0.03675,0.11945 0.05513,0.17458l0.00919,0c0.11026,0.33998 0.22052,0.68914 0.3216,1.0383c0.06432,0.22971 0.12864,0.45024 0.17458,0.67076c0.05513,0.22971 0.11026,0.45024 0.1562,0.67995c0.05513,0.24809 0.10107,0.48699 0.13783,0.73508c0.0827,0.4778 0.1562,0.96479 0.19296,1.46098q0.04126,0.35835 0.05513,0.7167c0.02766,0.37673 0.03685,0.76265 0.03685,1.14857z" class="cls-1"/>
   <path stroke="null" fill="#fff" transform="translate(66.079 4.6334)" d="m-56.16393,31.54111a0.00919,0.00919 0 0 0 0.00919,0.00919l-0.00919,0s-0.00919,0 0,-0.00919z" class="cls-1"/>
   <path stroke="null" fill="#fff" transform="translate(66.079 4.6334)" d="m-55.61271,32.11999c0.22052,0.22971 0.44105,0.45024 0.66157,0.67995c0,-0.00919 -0.00919,-0.00919 -0.01838,-0.00919a1.0904,1.0904 0 0 1 -0.10107,-0.11026c-0.17449,-0.18377 -0.35826,-0.36754 -0.54212,-0.5605z" class="cls-1"/>
   <path stroke="null" fill="#fff" transform="translate(66.079 4.6334)" d="m-52.51618,34.07715a18.96768,18.96768 0 0 1 -1.99391,-0.82697l-0.01838,-0.01838c-0.13783,-0.14702 -0.28484,-0.29403 -0.42267,-0.43186c0.00919,-0.00919 0.00919,0 0.01838,0.00919c0.13783,0.13783 0.28484,0.28484 0.42267,0.43186c0.00919,0 0.00919,0 0.01838,0.00919a20.80622,20.80622 0 0 0 1.97553,0.82697z" class="cls-1"/>
   <path stroke="null" fill="#0068ff" transform="translate(66.079 4.6334)" d="m-54.52847,33.2318c-0.27566,-0.12864 -0.54212,-0.26647 -0.80859,-0.41348c-0.27566,-0.14702 -0.53293,-0.29403 -0.79021,-0.45024c-0.2389,-0.13783 -0.46861,-0.28484 -0.68914,-0.43186c-0.22052,-0.13783 -0.43186,-0.28484 -0.6432,-0.44105c-0.14702,-0.10107 -0.29403,-0.21134 -0.43186,-0.3216c-0.22052,-0.16539 -0.43186,-0.33079 -0.65239,-0.51456c-0.21134,-0.16539 -0.42267,-0.34916 -0.62482,-0.53293c-0.16539,-0.14702 -0.33079,-0.30322 -0.49618,-0.45943q-0.34457,-0.33079 -0.68914,-0.68914c-0.29403,-0.31241 -0.58807,-0.6432 -0.86372,-0.97398c-0.24809,-0.29403 -0.4778,-0.59725 -0.7167,-0.90966c-0.02757,-0.03675 -0.05513,-0.0827 -0.09189,-0.12864q-0.30322,-0.41348 -0.57888,-0.85453c-0.12864,-0.18377 -0.2389,-0.37673 -0.35835,-0.56969c-0.0827,-0.14702 -0.17458,-0.29403 -0.25728,-0.44105c-0.17458,-0.31241 -0.34916,-0.63401 -0.51456,-0.96479c-0.00919,-0.02757 -0.02757,-0.05513 -0.03675,-0.0827c-0.11945,-0.22971 -0.22971,-0.46861 -0.33998,-0.7167c-0.10107,-0.2389 -0.20215,-0.4778 -0.30322,-0.72589s-0.19296,-0.49618 -0.27566,-0.74427a19.35415,19.35415 0 0 1 -0.62482,-2.1593a1.62104,1.62104 0 0 1 -0.03675,-0.18377c-0.11945,-0.52375 -0.21134,-1.05668 -0.28484,-1.58961c-0.03675,-0.27566 -0.06432,-0.55131 -0.09189,-0.82697s-0.04594,-0.55131 -0.06432,-0.82697l0,-2.04904c0.01838,-0.27566 0.03675,-0.55131 0.06432,-0.81778a3.14606,3.14606 0 0 1 0.04594,-0.42267c0.00919,-0.06432 0.00919,-0.13783 0.01838,-0.20215c0.01838,-0.18377 0.04594,-0.35835 0.07351,-0.53293c0.01838,-0.10107 0.02757,-0.19296 0.04594,-0.28484c0.04594,-0.30322 0.10107,-0.59725 0.16539,-0.89129c0.02757,-0.14702 0.06432,-0.27566 0.10107,-0.41348a1.01129,1.01129 0 0 1 0.05513,-0.2389c0.03675,-0.1562 0.0827,-0.31241 0.11945,-0.46861a0.05513,0.05513 0 0 1 0.00919,-0.03675c0,-0.01838 0.00919,-0.02757 0.00919,-0.04594c0.06432,-0.21134 0.12864,-0.42267 0.19296,-0.62482c0.04594,-0.14702 0.09189,-0.30322 0.14702,-0.45024c0.04594,-0.1562 0.10107,-0.30322 0.1562,-0.45024a0.03372,0.03372 0 0 1 0.00919,-0.02757c0.11026,-0.30322 0.22971,-0.59725 0.35835,-0.89129c0.05513,-0.13783 0.11026,-0.26647 0.17458,-0.4043s0.11945,-0.27566 0.19296,-0.4043a0.34485,0.34485 0 0 1 0.05513,-0.11945a8.39399,8.39399 0 0 1 0.39511,-0.75346a0.08371,0.08371 0 0 1 0.03675,-0.07351a4.31576,4.31576 0 0 1 0.27566,-0.49618c0.03675,-0.06432 0.06432,-0.11945 0.10107,-0.17458a2.1016,2.1016 0 0 1 0.16539,-0.26647a5.96243,5.96243 0 0 1 0.33079,-0.50537a0.75888,0.75888 0 0 1 0.07351,-0.11026a1.28566,1.28566 0 0 1 0.09189,-0.14702a3.60107,3.60107 0 0 1 0.22971,-0.33079a0.70219,0.70219 0 0 1 0.07351,-0.10107c0.12864,-0.18377 0.26647,-0.36754 0.41348,-0.54212c0.1562,-0.21134 0.3216,-0.41348 0.49618,-0.61563c0.13783,-0.17458 0.28484,-0.33998 0.44105,-0.50537c0.00919,-0.00919 0.01838,-0.02757 0.03675,-0.03675a3.02698,3.02698 0 0 1 0.22971,-0.25728c0.07351,-0.0827 0.16539,-0.17458 0.24809,-0.25728l0.01838,-0.01838c0.19296,-0.20215 0.38592,-0.39511 0.58807,-0.57888c0.04594,-0.04594 0.09189,-0.09189 0.14702,-0.13783c0.20215,-0.19296 0.41348,-0.37673 0.63401,-0.5605c0.02757,-0.02757 0.05513,-0.04594 0.0827,-0.07351c-0.03675,0.04594 -0.06432,0.11026 -0.10107,0.16539a22.88484,22.88484 0 0 0 -2.76575,12.40451a22.16612,22.16612 0 0 0 2.76575,9.99711a3.82243,3.82243 0 0 1 0.7994,1.67231a5.40607,5.40607 0 0 1 -1.58043,3.74892a1.64971,1.64971 0 0 1 0.17458,0.19296c0.87291,0.96479 1.82852,1.86527 2.71061,2.82088l0.52375,0.57888c-0.00919,0.00919 0,0.00919 0,0.00919l0.00919,0c0.18377,0.19296 0.35835,0.38592 0.54212,0.56969c0.18377,0.19296 0.36754,0.37673 0.54212,0.5605a1.0904,1.0904 0 0 0 0.10107,0.11026c0.00919,0 0.01838,0 0.01838,0.00919c0.13783,0.13783 0.28494,0.28484 0.42267,0.43186z" class="cls-2"/>
   <path stroke="null" fill="#0068ff" transform="translate(66.079 4.6334)" d="m-37.95164,18.09224c-0.53863,-0.07728 -1.43635,0.27051 -1.64162,-0.45079c-0.02564,-3.09139 0,-6.16982 -0.01277,-9.2612l1.65393,0c-0.0124,3.23307 -0.0124,6.47901 0.00046,9.71199z" class="cls-2"/>
   <path stroke="null" fill="#0068ff" transform="translate(66.079 4.6334)" d="m-48.77571,17.08757l0,0.39933a0.18726,0.18726 0 0 1 -0.02564,0.09014a0.83073,0.83073 0 0 1 -0.14114,0.3091c-0.17954,0.24478 -0.50013,0.21896 -0.75658,0.23192c-2.3213,-0.01296 -4.65546,0.01286 -6.97666,-0.01296l0,-0.01286a3.40426,3.40426 0 0 1 0.01277,-0.36065l0,-0.14169a3.0154,3.0154 0 0 1 0.05136,-0.33492a0.32785,0.32785 0 0 1 0.02564,-0.09014a1.19809,1.19809 0 0 1 0.25645,-0.48947c1.73139,-2.17676 3.47556,-4.34075 5.194,-6.53047l-0.0125,0c-1.7698,0 -3.53969,-0.01286 -5.29663,0.01286l0,-0.01286c-0.01286,-0.54093 0,-1.09481 0,-1.63556l1.92371,0c1.28244,0 2.55211,-0.01286 3.83455,-0.01286c0.64127,0 1.28253,0 1.91121,0.01286l0,0a2.30981,2.30981 0 0 1 -0.38472,1.45555c-1.74417,2.18972 -3.46269,4.39211 -5.19409,6.58192a0.01259,0.01259 0 0 1 -0.01277,0.01296c1.85957,0.01286 3.71915,0 5.57872,0l0,0l0,0.28282a1.48055,1.48055 0 0 1 0.01231,0.24497z" class="cls-2"/>
   <path stroke="null" fill="#0068ff" transform="translate(66.079 4.6334)" d="m-29.51299,13.27488a3.81838,3.81838 0 0 0 -2.2828,-2.45995c-0.05127,-0.01286 -0.08977,-0.03868 -0.14104,-0.05155a0.4563,0.4563 0 0 1 -0.14114,-0.05155c-0.08977,-0.02573 -0.19232,-0.05146 -0.29495,-0.07728l0,0a0.64127,0.64127 0 0 0 -0.15391,-0.02573a0.43453,0.43453 0 0 0 -0.12818,-0.01286l-0.02573,0c-0.03841,0 -0.07691,-0.01296 -0.11541,-0.01296l-0.05127,0a0.43517,0.43517 0 0 1 -0.12864,-0.01286l-0.15326,0a3.74745,3.74745 0 0 0 -0.74381,0.07728l-0.15391,0.03868l-0.02564,0l-0.15391,0.03859a1.01074,1.01074 0 0 0 -0.17954,0.06432c-0.05127,0.01286 -0.08977,0.03868 -0.14104,0.05155l-0.01286,0c-0.0385,0.01286 -0.06432,0.02573 -0.10254,0.03859c-0.01286,0 -0.02573,0.01296 -0.0385,0.01296c-0.06432,0.02573 -0.12864,0.06432 -0.19241,0.09014l0,0c-0.02564,0.01286 -0.06432,0.03859 -0.08977,0.05155s-0.06432,0.03859 -0.08977,0.05146s-0.06432,0.03868 -0.08977,0.05155a0.39033,0.39033 0 0 0 -0.08977,0.06432a3.96733,3.96733 0 0 0 -1.24394,1.40401a3.88188,3.88188 0 0 0 -0.16677,3.11711a0.88972,0.88972 0 0 0 0.0385,0.103a2.60173,2.60173 0 0 0 0.23082,0.46374a3.76334,3.76334 0 0 0 4.39864,1.67461a3.58692,3.58692 0 0 0 1.70567,-1.17209a0.73692,0.73692 0 0 1 0.08977,-0.1031a0.77588,0.77588 0 0 0 0.08977,-0.12864a3.62267,3.62267 0 0 0 0.57713,-3.28453l0,-0.00037zm-5.46331,-0.09014a0.12864,0.12864 0 0 1 0.05127,-0.06432c0.02564,-0.03859 0.06432,-0.09014 0.08977,-0.12864l0,0a1.37745,1.37745 0 0 1 0.23082,-0.24469a2.18917,2.18917 0 0 1 0.71817,-0.45079a2.17557,2.17557 0 0 1 1.83394,0.12864a2.09213,2.09213 0 0 1 1.02599,1.23659a2.24108,2.24108 0 0 1 -1.51326,2.8852a2.44415,2.44415 0 0 1 -0.42322,0.07737l-0.30782,0a2.21664,2.21664 0 0 1 -1.91121,-1.4426a2.27664,2.27664 0 0 1 0.20564,-1.99676l-0.00009,0z" class="cls-2"/>
   <path stroke="null" fill="#0068ff" transform="translate(66.079 4.6334)" d="m-42.44032,10.82761c0,0.12864 0.01286,0.37351 0.01286,0.48947a0.01259,0.01259 0 0 1 -0.01286,-0.01286a4.93424,4.93424 0 0 0 -1.24403,-0.56675a3.67881,3.67881 0 0 0 -3.80892,1.24964c-0.02564,0.03868 -0.05127,0.06432 -0.07691,0.1031c-0.01286,0.02573 -0.0385,0.03859 -0.05136,0.06432c-0.01277,0.01286 -0.02564,0.03859 -0.03841,0.05146c-0.01286,0.02582 -0.0385,0.05155 -0.05136,0.07737c-0.02564,0.03859 -0.03841,0.06432 -0.06432,0.103a2.07927,2.07927 0 0 0 -0.12818,0.23183c-0.01286,0.03868 -0.0385,0.06432 -0.05136,0.1031a3.86837,3.86837 0 0 0 -0.07691,3.15571c0.01286,0.02582 0.01286,0.03868 0.02564,0.06432c0,0.01286 0.01286,0.01286 0.01286,0.02582c0.01277,0.03859 0.03841,0.07728 0.05127,0.11587a3.31981,3.31981 0 0 0 0.61563,0.86299a3.69305,3.69305 0 0 0 3.70628,1.05622l0.1155,-0.03859a0.04686,0.04686 0 0 0 0.03841,-0.01286c0.02564,-0.01296 0.05136,-0.01296 0.077,-0.02582l0.01277,0l0.11541,-0.03859c0.01286,0 0.02573,-0.01286 0.05136,-0.02582a3.07659,3.07659 0 0 0 0.74381,-0.42506l0.01286,-0.01286c0.10254,0.23183 0.19232,0.52816 0.44886,0.63116a6.57898,6.57898 0 0 0 1.12918,0.0385l0.01286,0l0,-7.26463l-1.57795,0zm-1.15426,5.50043a2.19606,2.19606 0 0 1 -2.98811,-0.94035a2.24255,2.24255 0 0 1 0.41036,-2.57609l0.06432,-0.06432c0.06432,-0.05155 0.11541,-0.103 0.17954,-0.15455a0.52806,0.52806 0 0 1 0.14104,-0.09014l0.077,-0.03868l0.15391,-0.07728a0.78102,0.78102 0 0 1 0.15391,-0.06432a1.91121,1.91121 0 0 1 0.5129,-0.14169a2.19872,2.19872 0 0 1 1.53899,0.39933a0.53606,0.53606 0 0 1 0.08977,0.06432a2.10481,2.10481 0 0 1 0.6669,0.9274a2.23005,2.23005 0 0 1 -0.41036,2.29272l-0.19241,0.19296a2.7164,2.7164 0 0 1 -0.39777,0.27069z" class="cls-2"/>
   <path stroke="null" fill="#fff" transform="translate(66.079 4.6334)" d="m-31.06089,28.38026c-0.00919,0 -0.00919,0 -0.01838,0.01838c-0.00919,0 -0.00919,0.00919 -0.01838,0.00919s-0.00919,0 -0.01838,0.00919a1.12651,1.12651 0 0 1 -0.1562,0.06432a0.30901,0.30901 0 0 1 -0.11026,0.05513l0,0.00919c-0.00919,0 -0.01838,0.00919 -0.02757,0a0.97996,0.97996 0 0 1 -0.17458,0.0827c-0.16539,0.07351 -0.33079,0.14702 -0.50537,0.22052l-0.22052,0.0827a1.121,1.121 0 0 1 -0.1562,0.06432c-0.11945,0.04594 -0.24809,0.09189 -0.36754,0.13783l-0.00919,0c-0.09189,0.03675 -0.16539,0.07351 -0.25728,0.10107c-0.00919,0.00919 -0.00919,0.00919 -0.01838,0.00919c-0.22971,0.0827 -0.46861,0.1562 -0.69833,0.22052c-0.24809,0.07351 -0.48699,0.14702 -0.73508,0.21134c-0.01838,0.01838 -0.02757,0.01838 -0.04594,0.00919c-0.22971,0.07351 -0.45943,0.12864 -0.68914,0.18377c-0.24809,0.06432 -0.48699,0.11945 -0.73508,0.16539c-0.24809,0.05513 -0.49618,0.10107 -0.75346,0.14702c-0.12864,0.02757 -0.25728,0.04594 -0.38592,0.06432l-0.35835,0.05513c0.48699,-0.0827 0.97398,-0.16539 1.45179,-0.26647c0.25728,-0.05513 0.50537,-0.11026 0.75346,-0.17458c0.48699,-0.11945 0.97398,-0.24809 1.45179,-0.39511l0.00919,0c0.2389,-0.07351 0.46861,-0.14702 0.70752,-0.22971a16.83788,16.83788 0 0 0 1.80095,-0.73508c0.10107,-0.03675 0.19287,-0.0827 0.28484,-0.11945z" class="cls-1"/>
   <path stroke="null" fill="#005be0" transform="translate(66.079 4.6334)" d="m-31.09773,28.40783c-0.11026,0.12864 -0.22971,0.25728 -0.33998,0.37673c-0.11945,0.12864 -0.2389,0.25728 -0.34916,0.37673c-0.4778,0.48699 -0.98317,0.95561 -1.50692,1.40584c-0.26647,0.21134 -0.54212,0.43186 -0.82697,0.6432c-0.54212,0.41348 -1.121,0.79021 -1.70907,1.15775l-0.00919,0c-0.58807,0.34916 -1.2037,0.67995 -1.82852,0.97398a19.31859,19.31859 0 0 1 -2.9587,1.09343a19.59912,19.59912 0 0 1 -2.08579,0.46861a20.23221,20.23221 0 0 1 -3.27111,0.26647l-0.00919,0a19.87726,19.87726 0 0 1 -6.52385,-1.09343c-0.33998,-0.11945 -0.67995,-0.24809 -1.01074,-0.38592s-0.66157,-0.28484 -0.98317,-0.44105l-0.01838,-0.01838l-0.44105,-0.44105a1.0904,1.0904 0 0 1 -0.10107,-0.11026c-0.37673,-0.36754 -0.73508,-0.74427 -1.09343,-1.13019l0,-0.00919c-0.18377,-0.19296 -0.35835,-0.38592 -0.53293,-0.57888c-0.90048,-0.95561 -1.8377,-1.85608 -2.71061,-2.82088l0.05513,0c0.11945,0.00919 0.24809,0.00919 0.36754,0.02757l0.35835,0a8.87317,8.87317 0 0 0 1.10262,-0.06432c0.11026,-0.00919 0.20215,-0.02757 0.31241,-0.03675a0.05513,0.05513 0 0 1 0.03675,-0.00919c0.02757,0 0.06432,-0.00919 0.09189,-0.00919c0.07351,-0.00919 0.13783,-0.02757 0.21134,-0.03675l0.00919,0c0.04594,-0.00919 0.10107,-0.01838 0.14702,-0.02757c0.27419,-0.04989 0.54414,-0.12919 0.81484,-0.20334c0.04319,-0.01231 0.08894,-0.0249 0.13167,-0.03556c0.14702,-0.03675 0.28484,-0.0827 0.42267,-0.12864c0.00919,0 0.00919,-0.00919 0.01838,-0.00919a0.1302,0.1302 0 0 0 0.05513,-0.01838c0.03969,-0.01222 0.0793,-0.02876 0.11945,-0.04263c0.26922,-0.09648 0.5401,-0.18928 0.7994,-0.30653a0.00919,0.00919 0 0 1 0.00919,0.00919a18.51313,18.51313 0 0 0 4.35536,2.05823a0.72102,0.72102 0 0 0 0.12864,0.04594c0.12864,0.04594 0.25728,0.09189 0.39511,0.12864l0.00919,0a0.59073,0.59073 0 0 0 0.11945,0.03675c0.33079,0.10107 0.66157,0.19296 1.00155,0.27566a24.6416,24.6416 0 0 0 3.0414,0.57888c0.44105,0.06432 0.8821,0.11026 1.32315,0.14702s0.87291,0.06432 1.32315,0.0827c0.14702,0 0.28484,0.00919 0.42267,0.00919c0.35835,0.00919 0.7167,0.00919 1.08425,0c0.14702,0 0.30322,-0.00919 0.45943,-0.00919c0.11026,0 0.2389,-0.01838 0.35835,-0.01838l0.04594,0a3.02642,3.02642 0 0 0 0.41348,-0.02757c0.13783,-0.00919 0.28484,-0.02757 0.42267,-0.02757c0.12864,-0.00919 0.26647,-0.01838 0.39511,-0.03675c0.50537,-0.04594 1.01074,-0.11026 1.50692,-0.18377c0.12864,-0.01838 0.24809,-0.03675 0.37673,-0.06432c0.12864,-0.01838 0.25728,-0.03675 0.38592,-0.06432c0.24809,-0.04594 0.50537,-0.09189 0.75346,-0.14702c0.24809,-0.04594 0.48699,-0.10107 0.73508,-0.16539c0.22971,-0.05513 0.45943,-0.11026 0.68914,-0.18377c0.01838,0.00919 0.02757,0.00919 0.04594,-0.00919a7.3669,7.3669 0 0 0 0.73508,-0.21134c0.22971,-0.06432 0.46861,-0.13783 0.69833,-0.22052c0.00919,0 0.00919,0 0.01838,-0.00919c0.09189,-0.02757 0.16539,-0.06432 0.25728,-0.10107l0.00919,0c0.11945,-0.04594 0.24809,-0.09189 0.36754,-0.13783a1.121,1.121 0 0 0 0.1562,-0.06432l0.22052,-0.0827c0.17458,-0.07351 0.33998,-0.14702 0.50537,-0.22052a0.97996,0.97996 0 0 0 0.17458,-0.0827a0.03363,0.03363 0 0 0 0.02757,-0.00919c0.00919,0 0.01838,-0.00919 0.02757,-0.01838a0.32583,0.32583 0 0 0 0.0827,-0.03675a1.12651,1.12651 0 0 0 0.1562,-0.06432c0.0091,-0.00919 0.0091,-0.00919 0.01829,-0.00919z" class="cls-3"/>
  </g>
 </g>
</svg>