<svg xmlns="http://www.w3.org/2000/svg" width="35.999" height="36" viewBox="0 0 35.999 36">
  <g id="Layer_2" data-name="Layer 2" transform="translate(-1 -1)">
    <path id="Path_1192" data-name="Path 1192" d="M37,25H34.6V19A15.6,15.6,0,0,0,3.4,19v6H1V19a18,18,0,0,1,36,0Z" fill="#ec1d25"/>
    <path id="Path_1193" data-name="Path 1193" d="M8.476,29.4H7a6,6,0,0,1-6-6V21a6,6,0,0,1,6-6H8.476A2.16,2.16,0,0,1,10.6,17.16V27.24A2.16,2.16,0,0,1,8.475,29.4ZM7,17.4A3.6,3.6,0,0,0,3.4,21v2.4A3.6,3.6,0,0,0,7,27H8.2V17.4Zm24,12h-1.44a2.16,2.16,0,0,1-2.16-2.16V17.16A2.16,2.16,0,0,1,29.559,15H31a6,6,0,0,1,6,6v2.4a6,6,0,0,1-6,6ZM29.8,27H31a3.6,3.6,0,0,0,3.6-3.6V21A3.6,3.6,0,0,0,31,17.4H29.8Z" transform="translate(0 2.799)" fill="#ec1d25"/>
    <path id="Path_1194" data-name="Path 1194" d="M6.8,16H8.276a.96.96,0,0,1,.96.96V27.04a.96.96,0,0,1-.96.96H6.8A4.8,4.8,0,0,1,2,23.2V20.8A4.8,4.8,0,0,1,6.8,16Z" transform="translate(0.2 2.999)" fill="#ec1d25"/>
    <path id="Path_1195" data-name="Path 1195" d="M4.8,0H6.24A.96.96,0,0,1,7.2.96V11.04a.96.96,0,0,1-.96.96H4.8A4.8,4.8,0,0,1,0,7.2V4.8A4.8,4.8,0,0,1,4.8,0Z" transform="translate(35.799 30.999) rotate(180)" fill="#ec1d25"/>
    <path id="Path_1196" data-name="Path 1196" d="M25.468,32H17.2A1.2,1.2,0,0,1,16,30.8h0a1.2,1.2,0,0,1,1.2-1.2h8.4a1.2,1.2,0,0,0,1.2-1.2V26h2.4v2.4a3.6,3.6,0,0,1-1.572,2.988A3.756,3.756,0,0,1,25.468,32Z" transform="translate(2.999 4.999)" fill="#ec1d25"/>
  </g>
</svg>
