<svg xmlns="http://www.w3.org/2000/svg" width="36" height="36" viewBox="0 0 36 36">
  <g id="Layer_x0020_1" transform="translate(-63 -330)">
    <g id="_397588032" transform="translate(63 330)">
      <path id="Path_1189" data-name="Path 1189" d="M64.786,345.913a2.541,2.541,0,0,1-.047-4.837c10.23-3.539,20.679-6.836,30.671-10.879a2.658,2.658,0,0,1,.988-.2,2.585,2.585,0,0,1,2.6,2.559,2.535,2.535,0,0,1-.142.85L87.83,364.263l-.009.028a2.614,2.614,0,0,1-4.787.271L76.726,351.9,64.8,345.913Z" transform="translate(-63 -330)" fill="#1e96c8" fill-rule="evenodd"/>
      <path id="Path_1190" data-name="Path 1190" d="M64.786,345.913a2.541,2.541,0,0,1-.047-4.837c10.23-3.539,20.679-6.836,30.671-10.879a2.658,2.658,0,0,1,.988-.2,2.585,2.585,0,0,1,2.6,2.559,2.535,2.535,0,0,1-.142.85L87.83,364.263l-.009.028a2.614,2.614,0,0,1-4.787.271L76.726,351.9,64.8,345.913Z" transform="translate(-63 -330)" fill="#ec1d25" fill-rule="evenodd"/>
      <path id="Path_1191" data-name="Path 1191" d="M64.787,345.736a2.5,2.5,0,0,1-.048-4.784c10.236-3.5,20.691-6.76,30.689-10.759a2.687,2.687,0,0,1,.988-.194,2.636,2.636,0,0,1,1.863.766l-21.955,20.7Z" transform="translate(-63 -330)" fill="#f65359" fill-rule="evenodd"/>
    </g>
  </g>
</svg>
