<svg width="34" height="34" xmlns="http://www.w3.org/2000/svg">

 <g>
  <title>Layer 1</title>
  <g stroke="null">
   <g stroke="null" transform="translate(1.40659 1.40659) scale(2.81 2.81)">
    <path stroke="null" fill="#EC1D25" d="m5.53556,-0.46036c-3.31774,0 -5.99591,2.67817 -5.99591,5.99591s2.67817,5.99591 5.99591,5.99591s5.99591,-2.67817 5.99591,-5.99591s-2.67817,-5.99591 -5.99591,-5.99591zm2.97131,9.44689l-0.79946,0.39973c-0.37308,0.18654 -0.81278,0.19986 -1.18586,0.02665c-2.21183,-1.02597 -3.82406,-2.65153 -4.86335,-4.86335c-0.17322,-0.37308 -0.15989,-0.81278 0.02665,-1.18586l0.39973,-0.79946c0.18654,-0.37308 0.70619,-0.42638 0.95935,-0.07995l0.89272,1.19918c0.13324,0.18654 0.14657,0.42638 0.03997,0.62624l-0.19986,0.34643c-0.09327,0.17322 -0.10659,0.37308 -0.01332,0.54629c0.493,0.91937 1.18586,1.61223 2.10523,2.10523c0.17322,0.09327 0.37308,0.07995 0.54629,-0.01332l0.34643,-0.19986c0.19986,-0.10659 0.4397,-0.09327 0.62624,0.03997l1.19918,0.89272c0.33311,0.23984 0.29313,0.77281 -0.07995,0.95935zm-3.69082,-5.63616c0,-0.19986 0.15989,-0.35975 0.35975,-0.35975c1.59891,0 2.90469,1.30578 2.90469,2.90469c0,0.19986 -0.15989,0.35975 -0.35975,0.35975s-0.35975,-0.15989 -0.35975,-0.35975c0,-1.19918 -0.97267,-2.17185 -2.17185,-2.17185c-0.21319,-0.01332 -0.37308,-0.17322 -0.37308,-0.37308zm4.35703,2.90469c-0.19986,0 -0.35975,-0.15989 -0.35975,-0.35975c0,-1.99864 -1.62556,-3.6242 -3.6242,-3.6242c-0.19986,0 -0.35975,-0.15989 -0.35975,-0.35975s0.15989,-0.35975 0.35975,-0.35975c2.38504,-0.01332 4.34371,1.94534 4.34371,4.34371c0,0.19986 -0.15989,0.35975 -0.35975,0.35975z" class="st0"/>
   </g>
  </g>
 </g>
</svg>