<svg xmlns="http://www.w3.org/2000/svg" width="36" height="36" viewBox="0 0 36 36">
  <path id="Path_1197" data-name="Path 1197" d="M22.773,7.1A14,14,0,0,1,34.938,19.263a1.993,1.993,0,0,0,1.984,1.764.976.976,0,0,0,.24-.02,2.008,2.008,0,0,0,1.744-2.245A18,18,0,0,0,23.254,3.11,2.007,2.007,0,0,0,21.03,4.874,1.978,1.978,0,0,0,22.773,7.1Zm.762,4.229a2.007,2.007,0,1,0-1,3.888,6.013,6.013,0,0,1,4.309,4.309,2.01,2.01,0,0,0,1.944,1.5,2.14,2.14,0,0,0,.5-.06,2.037,2.037,0,0,0,1.443-2.445A10.056,10.056,0,0,0,23.535,11.327ZM35.5,27.559l-5.09-.581a3.989,3.989,0,0,0-3.287,1.142l-3.687,3.687A30.151,30.151,0,0,1,10.228,18.6l3.707-3.707a3.989,3.989,0,0,0,1.142-3.287L14.5,6.557A4.011,4.011,0,0,0,10.509,3.01H7.042A3.977,3.977,0,0,0,3.034,7.158,34.052,34.052,0,0,0,34.878,39a3.977,3.977,0,0,0,4.148-4.008V31.527A3.972,3.972,0,0,0,35.5,27.559Z" transform="translate(-3.026 -3.01)" fill="#ec1d25"/>
</svg>
