<svg xmlns="http://www.w3.org/2000/svg" width="40" height="40" viewBox="0 0 40 40"><g transform="translate(-912 -952)"><circle cx="20" cy="20" r="20" transform="translate(912 952)" fill="#0673ba"/><g transform="translate(922 874.061)"><path d="M.7,100.267V91.792a.854.854,0,0,1,.856-.853h8.5a.854.854,0,0,1,.856.853v8.476a.285.285,0,0,1-.285.284H.987A.285.285,0,0,1,.7,100.267Zm6.868,2.9A1.776,1.776,0,1,1,5.794,101.4,1.772,1.772,0,0,1,7.57,103.171Zm-.888,0a.888.888,0,1,0-.888.884A.886.886,0,0,0,6.682,103.171ZM4.265,101.4H.285a.285.285,0,0,0-.285.284v.862a.285.285,0,0,0,.285.284H3.475A2.331,2.331,0,0,1,4.265,101.4Zm12.6,1.769a1.776,1.776,0,1,1-1.776-1.769A1.772,1.772,0,0,1,16.861,103.171Zm-.888,0a.888.888,0,1,0-.888.884A.886.886,0,0,0,15.973,103.171ZM20,101.686v.862a.285.285,0,0,1-.285.284H17.4a2.345,2.345,0,0,0-4.638,0H8.113a2.331,2.331,0,0,0-.79-1.431h4.412V93.271a.57.57,0,0,1,.571-.569H15a2.286,2.286,0,0,1,1.892,1l1.737,2.562a2.268,2.268,0,0,1,.391,1.273V101.4h.695A.285.285,0,0,1,20,101.686Zm-2.9-5.354-1.389-1.966a.286.286,0,0,0-.233-.121H13.316a.285.285,0,0,0-.285.284V96.5a.285.285,0,0,0,.285.284h3.555A.284.284,0,0,0,17.1,96.332Z" fill="#fff"/></g></g></svg>