<svg width="39.99999999999999" height="39.99999999999999" xmlns="http://www.w3.org/2000/svg" xml:space="preserve" version="1.1">
 <title/>

 <g>
  <title>Layer 1</title>
  <g stroke="null" id="svg_1">
   <path stroke="null" id="svg_2" fill="#FF0000" d="m20.07694,39.74725l0,0c-10.94268,0 -19.81651,-8.87383 -19.81651,-19.81651l0,0c0,-10.94268 8.87383,-19.81651 19.81651,-19.81651l0,0c10.94268,0 19.81651,8.87383 19.81651,19.81651l0,0c0,10.94268 -8.87383,19.81651 -19.81651,19.81651z" class="st0"/>
   <path stroke="null" id="svg_3" fill="#FFFFFF" d="m32.68817,13.55378c-0.30121,-1.14143 -1.19295,-2.03714 -2.32646,-2.34231c-2.05299,-0.55486 -10.28081,-0.55486 -10.28081,-0.55486s-8.23178,0 -10.28081,0.55486c-1.1335,0.30517 -2.02525,1.20088 -2.32646,2.34231c-0.55486,2.06488 -0.55486,6.37695 -0.55486,6.37695s0,4.31207 0.5509,6.37695c0.30121,1.14143 1.19295,2.03714 2.32646,2.34231c2.05299,0.55486 10.28081,0.55486 10.28081,0.55486s8.23178,0 10.28081,-0.55486c1.1335,-0.30517 2.02525,-1.20088 2.32646,-2.34231c0.5509,-2.06488 0.5509,-6.37695 0.5509,-6.37695s0,-4.31207 -0.54694,-6.37695zm-15.30231,10.28873l0,-7.82356l6.87633,3.91178l-6.87633,3.91178z" class="st1"/>
  </g>
 </g>
</svg>